<?xml version="1.0" standalone="no"?>
<!DOCTYPE svg PUBLIC "-//W3C//DTD SVG 20010904//EN"
 "http://www.w3.org/TR/2001/REC-SVG-20010904/DTD/svg10.dtd">
<svg version="1.0" xmlns="http://www.w3.org/2000/svg"
 width="700.000000pt" height="700.000000pt" viewBox="0 0 700.000000 700.000000"
 preserveAspectRatio="xMidYMid meet">
<metadata>
Created by potrace 1.14, written by Peter Selinger 2001-2017
</metadata>
<g transform="translate(0.000000,700.000000) scale(0.100000,-0.100000)"
fill="#000000" stroke="none">
<path d="M610 4763 c1 -900 1 -906 57 -1019 48 -99 126 -151 266 -177 65 -12
192 -14 257 -4 46 7 144 39 182 58 32 16 38 25 39 52 1 17 2 43 4 57 2 19 16
210 17 240 1 25 -4 31 -24 24 -32 -10 -105 -6 -129 6 -49 27 -49 26 -49 835
l0 755 -310 0 -310 0 0 -827z"/>
<path d="M4995 5039 c-150 -22 -277 -115 -345 -253 -18 -36 -34 -65 -36 -64
-1 2 -5 66 -9 143 -4 77 -9 142 -12 145 -2 3 -128 5 -279 5 l-274 1 2 -716 3
-715 308 -2 307 -3 0 404 c0 232 4 426 10 457 13 66 51 109 101 114 49 4 75
-9 95 -47 16 -30 17 -78 18 -478 l1 -445 308 -2 c230 -1 307 1 308 10 0 7 2
197 3 422 3 396 6 448 26 486 28 51 115 72 156 38 35 -29 38 -60 40 -499 1
-239 3 -441 3 -447 1 -10 72 -12 309 -10 l307 2 0 540 c-1 580 -2 595 -54 705
-48 103 -162 190 -271 207 -71 11 -186 6 -247 -12 -105 -31 -216 -120 -265
-211 -13 -24 -25 -44 -28 -44 -4 0 -12 15 -18 34 -18 49 -77 126 -127 164 -81
62 -212 90 -340 71z"/>
<path d="M1384 4986 c8 -44 12 -58 41 -171 14 -55 27 -107 29 -115 20 -78 251
-981 277 -1082 l9 -37 385 0 385 0 5 22 c15 65 37 164 40 177 2 9 15 67 29
130 14 63 30 149 36 190 6 41 13 86 16 100 3 14 7 45 10 70 3 25 7 54 9 65 2
11 4 25 5 30 2 21 18 -22 24 -65 3 -25 8 -54 10 -65 3 -18 13 -86 20 -140 4
-25 6 -39 52 -250 44 -203 53 -248 54 -257 0 -3 174 -5 386 -5 l387 2 13 50
c8 28 32 122 54 210 23 88 66 257 96 375 31 118 57 222 59 230 2 8 32 130 68
270 36 140 67 264 69 275 3 20 -3 20 -314 21 l-318 0 -6 -35 c-11 -63 -12 -68
-20 -118 -3 -26 -8 -57 -10 -68 -2 -11 -7 -40 -10 -65 -3 -25 -7 -52 -9 -60
-6 -21 -51 -318 -61 -396 -3 -23 -7 -51 -9 -62 -2 -12 -7 -52 -11 -89 -3 -37
-8 -75 -9 -83 -2 -8 -4 -19 -5 -25 -2 -23 -19 25 -24 66 -3 38 -12 92 -32 214
-3 17 -23 118 -44 225 -22 107 -41 206 -44 220 -3 14 -10 50 -15 80 -6 30 -13
66 -16 80 -2 14 -9 46 -15 71 l-11 46 -304 -1 -303 0 -6 -30 c-11 -59 -16 -81
-26 -132 -6 -28 -13 -64 -16 -80 -3 -16 -14 -74 -25 -129 -11 -55 -22 -111
-25 -125 -3 -14 -12 -59 -20 -100 -9 -41 -17 -86 -19 -100 -2 -14 -6 -41 -10
-60 -7 -37 -7 -40 -26 -168 -13 -86 -25 -96 -33 -27 -23 179 -36 284 -40 305
-3 14 -10 60 -16 103 -6 43 -13 88 -15 100 -2 12 -9 51 -14 87 -19 122 -23
143 -26 159 -1 9 -9 57 -16 107 l-12 90 -319 0 -320 1 6 -31z"/>
<path d="M4047 3436 c-2 -6 -3 -185 -3 -398 1 -214 -1 -388 -4 -388 -3 0 -14
18 -24 40 -30 62 -119 148 -184 177 -79 36 -226 42 -313 13 -196 -67 -315
-239 -357 -520 -9 -62 -9 -373 1 -435 40 -252 145 -411 319 -483 76 -31 225
-40 300 -18 114 35 214 118 275 232 l32 59 2 -35 c0 -19 2 -53 4 -75 2 -22 5
-68 7 -102 1 -35 5 -63 8 -64 8 0 524 -1 540 0 13 1 15 118 14 999 -1 548 -2
1000 -3 1003 -2 11 -610 6 -614 -5z m-80 -1014 c49 -27 74 -108 77 -251 3
-113 -16 -214 -49 -256 -45 -60 -139 -54 -182 11 -35 54 -51 275 -28 385 21
100 106 152 182 111z"/>
<path d="M4879 3446 c-1 -1 -2 -450 -3 -1000 -1 -992 -1 -998 19 -1005 21 -7
513 -7 520 0 3 4 10 109 17 262 1 26 4 47 8 47 3 0 13 -22 23 -50 23 -65 99
-165 161 -211 165 -125 444 -97 586 58 70 76 136 213 155 318 2 17 8 41 11 55
14 55 13 356 -1 447 -45 292 -191 484 -396 523 -105 20 -217 7 -296 -33 -59
-31 -173 -160 -173 -197 0 -5 -3 -10 -8 -10 -4 0 -7 179 -7 398 l0 399 -307 0
c-170 0 -309 -1 -309 -1z m821 -1035 c44 -31 63 -108 63 -256 1 -194 -30 -267
-118 -280 -48 -7 -96 18 -119 63 -20 39 -33 143 -30 249 2 96 16 162 42 201
32 50 109 61 162 23z"/>
</g>
</svg>
