<svg width="753.874" height="394.726" xmlns="http://www.w3.org/2000/svg"><g fill="#0c1c27"><path d="M753.22 302.152c0-32.297-59.797-27.354-59.797-42.483 0-5.966 6.692-9.897 16.878-9.897 10.328 0 20.368 5.238 28.224 12.804l14.987-12.804c-9.31-10.91-24.007-18.475-42.92-18.475-25.755 0-41.904 13.823-41.904 30.407 0 34.339 59.36 26.045 59.36 42.485 0 6.111-4.653 10.767-15.567 10.767-11.784 0-23.568-4.801-35.356-14.404l-13.532 15.424c13.242 10.62 27.791 17.456 46.851 17.456 24.881 0 42.776-13.385 42.776-31.28m-95.59 28.663v-20.807h-50.778V288.33h35.939v-14.696h-35.939v-19.932h50.779v-19.788h-76.534v96.9zm-93.407 0v-96.9h-24.004v57.907l-7.131-9.746-35.645-48.161h-22.26v96.9h24.004V273.2l7.422 9.893 36.374 47.722zm-105.915-96.9h-25.755v96.9h25.755zm-42.633 96.9v-96.9h-25.75v39.429h-38.413v-39.43h-25.75v96.9h25.75v-38.118h38.413v38.119zM315.58 256.757c-5.24-13.386-21.68-25.46-42.776-25.46-29.247 0-48.015 18.332-48.015 41.755v18.916c0 23.279 18.332 41.464 47.723 41.464 21.68 0 37.248-12.073 42.63-25.607l-17.462-8.874c-4.072 8.002-12.51 14.405-23.57 14.405-14.691 0-22.986-8.587-22.986-20.66v-20.372c0-12.221 8.148-20.95 22.696-20.95 11.35 0 19.499 6.84 23.717 14.258zM184.193 294.44H161.06l11.787-33.752zm39.286 36.375l-36.811-96.9h-25.899l-36.373 96.9h24.008l6.984-19.786h34.19l6.837 19.786zm-106.793 0v-96.9H81.768l-19.64 52.378-3.785 10.331-3.783-10.476-19.931-52.233H0v96.9h23.425v-65.908l5.093 13.965 20.512 51.943h16.587l20.663-51.651 5.236-14.113v65.764h25.17M467.324 99.517V49.612h-42.485v13.679h17.024v2.473c0 9.31-6.842 16.295-18.482 16.295-13.676 0-21.388-8.876-21.388-20.226v-21.24c0-11.641 8.442-20.516 23.138-20.516 10.91 0 18.913 6.259 23.276 14.404l18.478-9.602C459.903 10.329 445.497 0 423.82 0c-29.1 0-48.16 18.768-48.16 41.028v20.515c0 22.26 16.003 40.592 44.522 40.592 13.966 0 25.314-5.963 31.861-15.42l.019 12.802zm-105.048 0v-96.9h-24.005v57.91l-7.13-9.748-35.645-48.162h-22.26v96.9h24.005V41.903l7.42 9.892 36.375 47.722zm-105.919-96.9h-25.753v96.9h25.753zm-33.316 0h-25.024l-24.296 66.638-24.3-66.638H121.78l38.12 96.9h24.004zm-109.264 0H88.022v96.9h25.755zm-35.937 96.9V78.86H25.752V2.617H.002v96.9H77.84m417.944 18.751l-18.479 65.036-19.353-65.036h-22.113l-19.352 64.599-18.042-64.599h-26.913l30.844 96.896h23.132l19.788-60.812 18.915 60.812h24.152l31.426-96.896zm31.136 96.896h25.753v-96.896H526.92zm36.95-96.896v20.37h30.847v76.526h25.754v-76.527h30.845v-20.369zm162.954 0v39.43h-38.412v-39.43h-25.75v96.896h25.75v-38.119h38.412v38.119h25.755v-96.896h-25.755"/><text style="-inkscape-font-specification:'Knockout weight=450'" x="400.046" y="381.695" transform="matrix(.96883 0 0 1.03217 0 .007)" font-weight="400" font-size="72.332" font-family="Knockout" stroke-width="1.356"><tspan x="400.046" y="381.695" style="-inkscape-font-specification:'Work Sans Heavy'" font-weight="900" font-family="Work Sans"><tspan fill="#d52b34">D</tspan>ATA<tspan fill="#d52b34">B</tspan>ASE</tspan></text></g></svg>
