<svg width="4608.125" height="4608.125" xmlns="http://www.w3.org/2000/svg"><g font-weight="900" font-size="2215.54" font-family="Work Sans"><path style="-inkscape-font-specification:'Work Sans Heavy'" d="M808.494 1874.107q0 58.564 15.96 85.013 15.958 24.559 56.743 24.559 31.918 0 63.837-9.446L927.3 2208.489q-31.918 26.448-95.755 43.45-63.836 17.003-124.127 17.003-164.911 0-235.841-75.566-70.93-75.567-70.93-253.148V927.638h407.846zM2365.4 2250.05h-507.148l-63.837-290.93-35.464-230.478h-7.093l-33.692 228.588-65.61 292.82h-507.148l-241.16-944.58h422.031l70.93 451.51 26.598 213.475h7.093l35.465-215.365 88.663-449.62h400.753l90.435 455.288 33.692 209.697H2087l26.598-211.586 70.93-453.4h422.032zm1533.854-963.472q131.22 0 203.923 83.123 74.476 83.123 74.476 234.256v646.093h-407.846v-532.743q0-62.342-14.185-85.012-14.186-24.56-47.878-24.56-44.331 0-65.61 35.895-19.506 35.894-19.506 111.46v494.96h-407.846v-532.743q0-62.342-14.186-85.012-14.186-24.56-47.877-24.56-44.331 0-65.61 35.895-19.506 35.894-19.506 111.46v494.96h-407.846v-944.58h367.061l8.867 205.918q39.011-109.57 117.034-166.246 78.022-58.564 191.51-58.564 101.075 0 166.685 49.118 67.383 49.119 95.755 139.798 42.558-92.568 115.26-139.798 74.477-49.118 177.325-49.118z" aria-label="lwm" fill="#0c1c27"/><path style="-inkscape-font-specification:'Work Sans Heavy'" d="M3070.826 2339.183v1322.412h-367.061l-12.413-187.026q-39.011 96.347-109.94 151.132-70.93 54.786-170.232 54.786-163.139 0-251.8-126.574-86.89-126.574-86.89-358.94 0-236.145 88.662-366.497 90.436-130.353 251.801-130.353 90.436 0 152.5 47.23 62.063 47.228 97.527 130.352v-536.522zm-494.735 1037.15q42.558 0 63.837-41.562 23.052-43.451 23.052-137.91v-15.112q0-90.68-21.278-134.13-21.28-43.452-65.61-43.452-46.105 0-69.157 39.673-23.052 39.672-23.052 145.465t23.052 147.355q23.052 39.672 69.156 39.672zm1290.923-678.21q161.365 0 250.028 130.353 90.435 130.352 90.435 366.497 0 232.366-88.662 358.94-86.89 126.574-250.028 126.574-106.394 0-182.644-64.231-74.476-64.232-108.168-175.692l-10.639 221.031h-358.195V2339.183h407.846v536.522q35.465-83.124 97.528-130.353 62.064-47.229 152.5-47.229zm-163.138 678.21q46.104 0 69.156-39.673 23.052-41.562 23.052-147.355 0-105.793-23.052-145.465-23.052-39.673-69.156-39.673-44.331 0-65.61 43.451-21.28 43.45-21.28 134.13v15.114q0 94.458 21.28 137.909 23.052 41.561 65.61 41.561z" aria-label="db" fill="#d42a33"/></g></svg>
